<svg xmlns="http://www.w3.org/2000/svg" viewBox="0 0 100 100" fill="none">
  <g fill="#ffb7c5">
    <path d="M50,50 C38,34 41,18 47,11 C49,14 51,14 53,11 C59,18 62,34 50,50 Z"/>
    <path d="M50,50 C38,34 41,18 47,11 C49,14 51,14 53,11 C59,18 62,34 50,50 Z" transform="rotate(72 50 50)"/>
    <path d="M50,50 C38,34 41,18 47,11 C49,14 51,14 53,11 C59,18 62,34 50,50 Z" transform="rotate(144 50 50)"/>
    <path d="M50,50 C38,34 41,18 47,11 C49,14 51,14 53,11 C59,18 62,34 50,50 Z" transform="rotate(216 50 50)"/>
    <path d="M50,50 C38,34 41,18 47,11 C49,14 51,14 53,11 C59,18 62,34 50,50 Z" transform="rotate(288 50 50)"/>
  </g>
  <circle cx="50" cy="50" r="4.5" fill="#fff0f4"/>
</svg>
